# xmcd
#
# Track frame offsets:
#	150
#	15229
#	29172
#	47213
#	67100
#	82847
#	95350
#	111005
#	125521
#	143186
#	157876
#	172577
#	190515
#	207778
#	225860
#	239668
#	253977
#	271971
#	291610
#	308491
#	324944
#
# Disc length: 4563 seconds
#
# Revision: 0
# Processed by: cddbd v1.5.2PL0 Copyright (c) Steve Scherf et al.
# Submitted via: dBpowerAMP V4.0
#
DISCID=1811d115
DTITLE=Various Artist - ERG Nu Country Traxx Vol. 183 CAN
DYEAR=2009
DGENRE=Country
TTITLE0=Kenny Chesney with Dave Matthews - I'm Alive
TTITLE1=Brooks and Dunn ft. Billy Gibbons - Honky Tonk Stomp
TTITLE2=Sugarland - Joey
TTITLE3=Alan Jackson - I Still Like Bologna
TTITLE4=Jessie Farrell - You Make Me Feel
TTITLE5=Toby Keith - American Ride
TTITLE6=Phil Vassar - Everywhere I Go
TTITLE7=Jason Greenley - Usually
TTITLE8=Zac Brown Band - Toes
TTITLE9=Jaydee Bixby - My So Called Life
TTITLE10=Josh Turner - Why Don't We Just Dance
TTITLE11=Lady Antebellum - Need You Now
TTITLE12=Miranda Lambert - White Liar
TTITLE13=Mallary Hope - Love Lives On
TTITLE14=Miley Cyrus - Hoedown Throwdown
TTITLE15=Josh Thompson - Beer On The Table
TTITLE16=Dierks Bentley - I Wanna Make You Close Your Eyes
TTITLE17=Jamey Johnson - My Way To You
TTITLE18=One More Girl - When It Ain't Rainin'
TTITLE19=Reba - Consider Me Gone
TTITLE20=Billy Ray Cyrus - A Good Day
EXTD=
EXTT0=
EXTT1=
EXTT2=
EXTT3=
EXTT4=
EXTT5=
EXTT6=
EXTT7=
EXTT8=
EXTT9=
EXTT10=
EXTT11=
EXTT12=
EXTT13=
EXTT14=
EXTT15=
EXTT16=
EXTT17=
EXTT18=
EXTT19=
EXTT20=
PLAYORDER=
